PathFileType	4	(X/Y/Z)	TVC_12_BWA2_walk_RCNL2025.trc
DataRate	CameraRate	NumFrames	NumMarkers	Units	OrigDataRate	OrigDataStartFrame	OrigNumFrames
100	100	4	27	mm	100	331	440
Frame#	Time	R_Shoulder			L_Shoulder			C7			J_Notch			R_Elbow			L_Elbow			R_Wrist			L_Wrist			R_Asis			L_Asis			R_Psis			L_Psis			Sacral			Thoracic			Sternum			R_Thigh_Lateral			R_Knee_Lateral			R_Shank_Lateral			R_Ankle_Lateral			R_Heel			R_Toe			L_Thigh_Lateral			L_Knee_Lateral			L_Shank_Lateral			L_Ankle_Lateral			L_Heel			L_Toe		
		X1	Y1	Z1	X2	Y2	Z2	X3	Y3	Z3	X4	Y4	Z4	X5	Y5	Z5	X6	Y6	Z6	X7	Y7	Z7	X8	Y8	Z8	X9	Y9	Z9	X10	Y10	Z10	X11	Y11	Z11	X12	Y12	Z12	X13	Y13	Z13	X14	Y14	Z14	X15	Y15	Z15	X16	Y16	Z16	X17	Y17	Z17	X18	Y18	Z18	X19	Y19	Z19	X20	Y20	Z20	X21	Y21	Z21	X22	Y22	Z22	X23	Y23	Z23	X24	Y24	Z24	X25	Y25	Z25	X26	Y26	Z26	X27	Y27	Z27
331	3.30000000	1151.124756	1338.464600	-1.536325	1145.839722	1364.900879	-419.097717	1050.639038	1425.384644	-201.629868	1198.082275	1309.346191	-209.718781	1026.932495	1024.397461	59.626266	975.223633	1065.021973	-487.249847	1063.430359	778.734985	14.792620	1006.071106	828.923004	-429.929626	1116.248413	918.240417	-55.574581	1118.989746	929.685120	-403.029999	938.134460	958.433289	-169.751465	936.455322	956.173889	-277.959229	937.294891	957.303589	-223.855347	953.794678	1171.172485	-222.125778	1281.608276	1118.846436	-227.653381	1103.281250	604.071350	-46.918304	1116.049683	473.690094	-105.961266	1061.481689	258.879669	-73.536385	1022.606079	56.276421	-141.738892	980.539246	56.248035	-199.478622	1157.063721	43.780510	-156.446136	1181.181519	638.941284	-477.482452	1228.907349	494.377716	-403.138000	1146.458984	317.299652	-439.716492	1087.742798	110.847366	-362.534119	1043.471680	105.612083	-307.561859	1217.376587	52.799000	-346.607239
332	3.31000000	1157.209106	1338.552734	-1.943879	1151.135010	1364.658569	-419.567566	1056.567261	1425.432983	-201.944107	1203.862549	1309.205444	-210.219208	1032.437134	1024.806641	59.652676	979.511108	1065.101074	-486.947357	1068.232910	779.012543	15.027573	1010.583862	828.972839	-429.836670	1121.748535	918.254883	-55.649197	1123.754517	929.247498	-403.047821	943.499878	958.801514	-169.508255	941.626709	956.406555	-277.719421	942.563293	957.604034	-223.613838	959.428467	1171.320801	-222.106277	1287.052490	1118.545288	-228.093445	1106.765503	603.929260	-47.092777	1117.963257	473.406311	-106.209839	1062.545532	258.788727	-73.559052	1022.664124	56.328873	-141.769012	980.597534	56.435020	-199.416031	1157.203125	43.515869	-156.658371	1185.968994	638.726685	-477.822144	1234.245117	494.562195	-402.609589	1158.933594	314.689453	-439.227997	1109.263062	105.970337	-361.964600	1065.339722	98.984924	-306.816437	1241.169189	52.453125	-346.329041
333	3.32000000	1163.353516	1338.629883	-2.431356	1156.504028	1364.369629	-420.112640	1062.546997	1425.447998	-202.347382	1209.700073	1309.037109	-210.790543	1037.998901	1025.215698	59.635483	983.892883	1065.136353	-486.696411	1073.071472	779.292480	15.165146	1015.092346	828.982208	-429.722305	1127.293579	918.260193	-55.750923	1128.546509	928.727661	-403.119598	948.912598	959.151733	-169.300278	946.854492	956.594238	-277.513367	947.883545	957.872986	-223.406822	965.117126	1171.435791	-222.157471	1292.551270	1118.208618	-228.576431	1110.272461	603.804993	-47.267128	1119.819214	473.134369	-106.455482	1063.562012	258.719910	-73.581024	1022.723450	56.382915	-141.793320	980.665833	56.650200	-199.322968	1157.338135	43.241913	-156.863586	1190.305786	638.242126	-478.180756	1239.171021	494.522644	-402.011566	1171.202515	312.160065	-438.738892	1130.840698	101.513588	-361.544312	1087.403931	92.798409	-306.168030	1264.856812	52.484589	-346.320374
334	3.33000000	1169.558594	1338.691162	-3.002195	1161.951782	1364.029663	-420.735840	1068.578735	1425.423584	-202.843475	1215.595337	1308.835083	-211.435242	1043.624146	1025.617676	59.570278	988.379517	1065.121948	-486.503235	1077.950745	779.567444	15.207305	1019.599274	828.945801	-429.589905	1132.882935	918.256470	-55.879330	1133.375122	928.133545	-403.243927	954.375000	959.476685	-169.133392	952.144409	956.727722	-277.345917	953.259705	958.102203	-223.239655	970.861511	1171.510620	-222.283707	1298.106567	1117.831909	-229.103821	1113.782104	603.700073	-47.442970	1121.616943	472.875519	-106.696159	1064.523071	258.678345	-73.607986	1022.782166	56.439861	-141.811783	980.741577	56.873219	-199.218948	1157.460938	42.974854	-157.049973	1194.192749	637.478638	-478.552795	1243.721313	494.271057	-401.327545	1183.237061	309.753052	-438.244781	1152.390381	97.526222	-361.300079	1109.595215	87.105293	-305.652557	1288.373413	52.945034	-346.614258
